<?xml version="1.0" encoding="UTF-8"?>
<svg width="224px" height="31px" viewBox="0 0 224 31" version="1.1" xmlns="http://www.w3.org/2000/svg" xmlns:xlink="http://www.w3.org/1999/xlink">
    <!-- Generator: Sketch 51.3 (57544) - http://www.bohemiancoding.com/sketch -->
    <title>LOGO </title>
    <desc>Created with Sketch.</desc>
    <defs></defs>
    <g id="Symbols" stroke="none" stroke-width="1" fill="none" fill-rule="evenodd">
        <g id="nav/Academy---search-top" transform="translate(-180.000000, -92.000000)">
            <g id="Marketing/Navigation/Main-Nav" transform="translate(0.000000, 60.000000)">
                <g id="btm-bar-standard">
                    <g id="LOGO-" transform="translate(180.000000, 32.000000)">
                        <polyline id="Fill-1" fill="#425B76" points="11.3474043 5 11.3474043 12.9601396 3.65366948 12.9601396 3.65366948 5 0 5 0 24 3.65366948 24 3.65366948 16.2996778 11.3474043 16.2996778 11.3474043 24 15 24 15 5"></polyline>
                        <path d="M26.531275,17.5394388 C26.531275,19.2000785 25.1704593,20.5509653 23.500359,20.5509653 C21.8297203,20.5509653 20.469802,19.2000785 20.469802,17.5394388 L20.469802,9 L17,9 L17,17.5394388 C17,21.1021328 19.9160338,24 23.500359,24 C27.0839662,24 30,21.1021328 30,17.5394388 L30,9 L26.531275,9" id="Fill-2" fill="#425B76"></path>
                        <path d="M51.0091019,10.5574057 C51.0091019,8.88921497 52.1315744,8.36035109 53.3603318,8.36035109 C54.3499049,8.36035109 55.659197,9.10120251 56.5136241,10.0013421 L58.7043032,7.46089151 C57.6094821,6.00587835 55.3918428,5 53.5744571,5 C49.9395126,5 47.3204102,7.09063579 47.3204102,10.5574057 C47.3204102,16.9875812 55.3116539,14.9493048 55.3116539,18.5490131 C55.3116539,19.6592703 54.2163143,20.6391389 52.9605968,20.6391389 C50.9823146,20.6391389 50.3406302,19.6866399 49.432283,18.6807616 L47,21.1678328 C48.5508958,23.046821 50.4743937,24 52.773086,24 C56.2205196,24 59,21.8828445 59,18.5746828 C59,11.4301755 51.0091019,13.6532398 51.0091019,10.5574057" id="Fill-3" fill="#425B76"></path>
                        <path d="M100.841134,20.8783251 C98.8942595,20.8783251 98.3416324,20.0177853 98.3416324,18.6989638 L98.3416324,12.8610037 L101.367721,12.8610037 L101.367721,9.90165868 L98.3416324,9.90165868 L98.3416324,6 L95,7.53334751 L95,19.4255336 C95,22.4661305 97.0520557,24 99.8671011,24 C100.288167,24 100.867855,23.9723361 101.184079,23.892476 L102,20.825607 C101.631695,20.8515311 101.2108,20.8783251 100.841134,20.8783251" id="Fill-4" fill="#425B76"></path>
                        <path d="M39.1382909,20.6641508 C37.0742907,20.6641508 35.4013785,18.9809289 35.4013785,16.9047615 C35.4013785,14.8284231 37.0742907,13.1453721 39.1382909,13.1453721 C41.2017814,13.1453721 42.8748635,14.8284231 42.8748635,16.9047615 C42.8748635,18.9809289 41.2017814,20.6641508 39.1382909,20.6641508 M39.1586778,9.72696851 C37.5295974,9.72696851 36.39252,10.2026394 35.2945174,11.286957 L35.2945174,5 L32,5 L32,16.6517996 C32,21.0131698 35.1341407,24 38.655462,24 C42.5700798,24 46,20.9600137 46,16.8637406 C46,12.8195982 42.8371478,9.72696851 39.1586778,9.72696851" id="Fill-5" fill="#425B76"></path>
                        <path d="M71.8749014,17.0953456 C71.8749014,19.1714944 70.2018396,20.8547012 68.1382043,20.8547012 C66.074399,20.8547012 64.4015072,19.1714944 64.4015072,17.0953456 C64.4015072,15.0190259 66.074399,13.3359901 68.1382043,13.3359901 C70.2018396,13.3359901 71.8749014,15.0190259 71.8749014,17.0953456 M75,17.1361952 C75,13.0401299 71.5701215,10 67.655721,10 C64.1341027,10 61,12.9869742 61,17.3481343 L61,29 L64.2946473,29 L64.2946473,22.7129286 C65.3926365,23.7972365 66.5297001,24.273074 68.1587608,24.273074 C71.8371862,24.273074 75,21.1804721 75,17.1361952" id="Fill-6" fill="#425B76"></path>
                        <g id="Group-9" transform="translate(66.000000, 0.000000)">
                            <polygon id="Clip-8" points="0.0061886278 0.0327134146 26.858121 0.0327134146 26.858121 28.965872 0.0061886278 28.965872"></polygon>
                            <path d="M19.5129172,20.8822988 C17.4330573,20.8822988 15.7466752,19.1486646 15.7466752,17.0100915 C15.7466752,14.8715183 17.4330573,13.1377073 19.5129172,13.1377073 C21.5926051,13.1377073 23.2788153,14.8715183 23.2788153,17.0100915 C23.2788153,19.1486646 21.5926051,20.8822988 19.5129172,20.8822988 M20.6403822,6.11068902 C21.5147006,5.68594512 22.1274459,4.77633537 22.1274459,3.72066463 L22.1274459,3.64109146 C22.1274459,2.18437195 20.9679936,0.992365854 19.5514395,0.992365854 L19.474051,0.992365854 C18.0573248,0.992365854 16.8978726,2.18437195 16.8978726,3.64109146 L16.8978726,3.72066463 C16.8978726,4.77633537 17.5107898,5.68594512 18.3851083,6.11068902 L18.3851083,9.55532317 C17.0832611,9.76203659 15.8937134,10.3142744 14.9120828,11.1268049 L5.71419745,3.76964634 C5.77473248,3.53021951 5.81721019,3.28336585 5.81755414,3.02431098 C5.81961783,1.37414024 4.52035032,0.0348353659 2.91548408,0.0327134146 C1.31078981,0.0305914634 0.00808280255,1.36653659 0.0061910828,3.01670732 C0.00412738854,4.66670122 1.3033949,6.0060061 2.90826115,6.00812805 C3.43123567,6.00883537 3.91517197,5.85605488 4.3396051,5.60796341 L13.3875287,12.8452317 C12.6179427,14.0395366 12.1673694,15.4700854 12.1673694,17.0100915 C12.1673694,18.6224207 12.6626561,20.113622 13.499828,21.3402866 L10.7482357,24.1695549 C10.5306879,24.1025366 10.3048854,24.0555 10.0658408,24.0555 C8.7473121,24.0555 7.6781465,25.1548476 7.6781465,26.5107744 C7.6781465,27.8667012 8.7473121,28.965872 10.0658408,28.965872 C11.3847134,28.965872 12.453707,27.8667012 12.453707,26.5107744 C12.453707,26.2651585 12.4081338,26.0328049 12.3427834,25.8092927 L15.0646242,23.0106159 C16.3000892,23.9805244 17.8385732,24.5628232 19.5129172,24.5628232 C23.5696242,24.5628232 26.858293,21.1813171 26.858293,17.0100915 C26.858293,13.2339024 24.1603567,10.1142805 20.6403822,9.55514634 L20.6403822,6.11068902 Z" id="Fill-7" fill="#FF7A59"></path>
                        </g>
                        <path d="M115.113164,17.2372564 L123.830882,17.2372564 L119.472023,7.14688113 L115.113164,17.2372564 Z M112.207318,24 L110,24 L118.550035,5 L120.505918,5 L129,24 L126.764706,24 L124.585365,19.0084674 L114.358859,19.0084674 L112.207318,24 Z" id="Fill-10" fill="#425B76"></path>
                        <path d="M140.401812,14.386169 C140.083774,13.8738617 139.621108,13.4518979 139.013992,13.119917 C138.406343,12.7882968 137.747524,12.6220359 137.037356,12.6220359 C136.270688,12.6220359 135.579354,12.7596249 134.962644,13.0346227 C134.345756,13.3096204 133.817528,13.6890271 133.378492,14.1726625 C132.939102,14.6564782 132.602585,15.2255883 132.36912,15.8799928 C132.1353,16.5345776 132.018745,17.241457 132.018745,18.0000902 C132.018745,18.7589036 132.1353,19.4610946 132.36912,20.1057614 C132.602585,20.7509693 132.934305,21.3152105 133.364456,21.7986656 C133.794252,22.2824813 134.317861,22.6622487 134.934571,22.9370661 C135.551459,23.2122442 136.242793,23.3496529 137.009284,23.3496529 C137.850575,23.3496529 138.560565,23.1886214 139.140141,22.8658372 C139.719362,22.5435939 140.195887,22.1261383 140.570071,21.613831 L142,22.6950681 C141.439257,23.397259 140.752365,23.9569922 139.939146,24.3740871 C139.126105,24.7910017 138.149247,25 137.009284,25 C135.943943,25 134.981122,24.8245424 134.12153,24.4736273 C133.261582,24.1228924 132.527784,23.6342079 131.920668,23.0081147 C131.313019,22.3822018 130.841114,21.6423226 130.504775,20.7886575 C130.168258,19.9349923 130,19.0057704 130,18.0000902 C130,16.9947705 130.168258,16.065188 130.504775,15.2113425 C130.841114,14.3576774 131.313019,13.6177982 131.920668,12.9918853 C132.527784,12.3657921 133.261582,11.8776485 134.12153,11.5265531 C134.981122,11.1754576 135.943943,11 137.009284,11 C137.887709,11 138.779994,11.1947525 139.686848,11.5833559 C140.593346,11.9723199 141.326967,12.5462988 141.887887,13.3049319 L140.401812,14.386169" id="Fill-11" fill="#425B76"></path>
                        <path d="M151.482534,18.0000902 C150.716439,18.0000902 149.945662,18.0334505 149.170376,18.0996303 C148.394744,18.1663511 147.692808,18.2987107 147.063529,18.4979713 C146.434075,18.6970517 145.918548,18.9866558 145.517466,19.3658822 C145.116038,19.7456496 144.915411,20.248039 144.915411,20.8739519 C144.915411,21.3483906 145.001766,21.7467316 145.175342,22.0691552 C145.348572,22.3919394 145.581279,22.652511 145.873116,22.8515914 C146.16478,23.050852 146.488871,23.1931296 146.84452,23.2784239 C147.200344,23.3638987 147.560329,23.4064557 147.925342,23.4064557 C148.58202,23.4064557 149.165695,23.2883419 149.676714,23.050852 C150.187039,22.8139032 150.616038,22.4914796 150.962671,22.083401 C151.308957,21.675683 151.57357,21.2061131 151.756164,20.6748715 C151.93841,20.1439906 152.029794,19.5840772 152.029794,18.9958525 L152.029794,18.0000902 L151.482534,18.0000902 Z M152.029794,16.039762 C152.029794,14.8912632 151.737956,14.0345325 151.154108,13.4693896 C150.570086,12.9046073 149.721972,12.6220359 148.609591,12.6220359 C147.843322,12.6220359 147.131849,12.7643134 146.475172,13.0486881 C145.818494,13.3332432 145.261697,13.7130105 144.805993,14.1869083 L143.766268,12.9064106 C144.295148,12.3564151 144.992749,11.9012713 145.859417,11.5406185 C146.725566,11.1805067 147.706507,11 148.801028,11 C149.493947,11 150.141954,11.0995402 150.743663,11.2988008 C151.345719,11.4978812 151.874771,11.7968623 152.330995,12.1952033 C152.786525,12.5935443 153.142348,13.0964746 153.397944,13.7032729 C153.653367,14.3106122 153.781165,15.0218195 153.781165,15.8374358 L153.781165,21.6706338 C153.781165,22.1829411 153.799026,22.714363 153.835787,23.2641782 C153.872029,23.8147146 153.926997,24.2792354 154,24.6586421 L152.330995,24.6586421 C152.276026,24.3363989 152.230248,23.9853034 152.194007,23.6057163 C152.157245,23.2264899 152.139211,22.8566405 152.139211,22.4959877 L152.084589,22.4959877 C151.500394,23.3878821 150.839555,24.0282211 150.100684,24.4168245 C149.361813,24.8052475 148.472776,25 147.432704,25 C146.940412,25 146.434075,24.9285907 145.914213,24.7863132 C145.39435,24.6434947 144.919746,24.410513 144.49144,24.0868272 C144.062441,23.7631413 143.706791,23.3444234 143.424144,22.8303129 C143.14115,22.3163827 143,21.6884862 143,20.9460824 C143,19.918222 143.250568,19.104409 143.75257,18.5051844 C144.254051,17.9057795 144.924428,17.4583897 145.763699,17.1631954 C146.60245,16.8680011 147.56501,16.6777567 148.650514,16.5919214 C149.735671,16.506627 150.862271,16.463529 152.029794,16.463529 L152.029794,16.039762 Z" id="Fill-12" fill="#425B76"></path>
                        <path d="M158.91399,18.2735539 C158.91399,18.9845284 159.020463,19.6544352 159.232904,20.2832742 C159.445681,20.9122865 159.751455,21.4591633 160.150224,21.9237313 C160.548992,22.3886459 161.040757,22.753577 161.625685,23.0176582 C162.210445,23.282086 162.875228,23.4141266 163.61953,23.4141266 C164.310594,23.4141266 164.948591,23.282086 165.533519,23.0176582 C166.118447,22.753577 166.623858,22.3933245 167.048403,21.9375939 C167.474632,21.4822098 167.806518,20.9394917 168.045746,20.3106527 C168.284974,19.6816404 168.404588,19.002723 168.404588,18.2735539 C168.404588,17.5445581 168.284974,16.8652942 168.045746,16.2362819 C167.806518,15.6074429 167.474632,15.0605661 167.048403,14.5956515 C166.623858,14.1309101 166.118447,13.7663256 165.533519,13.5020711 C164.948591,13.2378167 164.310594,13.1056028 163.61953,13.1056028 C162.875228,13.1056028 162.210445,13.242322 161.625685,13.5155871 C161.040757,13.7890255 160.548992,14.1582886 160.150224,14.6232032 C159.751455,15.0879445 159.445681,15.6346481 159.232904,16.2636604 C159.020463,16.8924994 158.91399,17.5624061 158.91399,18.2735539 Z M168.138405,22.5118492 C167.607724,23.3319911 166.915311,23.952166 166.065211,24.371161 C165.214437,24.790156 164.337212,25 163.43337,25 C162.458433,25 161.57666,24.8265451 160.78822,24.4805017 C159.999274,24.1344583 159.326068,23.6601865 158.767757,23.0585527 C158.209447,22.4570922 157.774963,21.7461177 157.465146,20.9259757 C157.154824,20.1054873 157,19.2215777 157,18.2735539 C157,17.3258767 157.154824,16.4414473 157.465146,15.6211321 C157.774963,14.8008169 158.209447,14.0898424 158.767757,13.4883819 C159.326068,12.8867481 159.999274,12.4129961 160.78822,12.0664329 C161.57666,11.7203895 162.458433,11.5469346 163.43337,11.5469346 C164.337212,11.5469346 165.214437,11.7614572 166.065211,12.1894628 C166.915311,12.6179883 167.607724,13.2516792 168.138405,14.0898424 L168.192315,14.0898424 L168.192315,4 L170,4 L170,24.6719779 L168.192315,24.6719779 L168.192315,22.5118492 L168.138405,22.5118492 Z" id="Fill-13" fill="#425B76"></path>
                        <path d="M185.051254,16.9754756 C184.993938,15.7236498 184.592725,14.6849698 183.849408,13.8597962 C183.104299,13.0346227 182.045743,12.6220359 180.670157,12.6220359 C180.028934,12.6220359 179.436071,12.7406907 178.889777,12.9774592 C178.341692,13.2151294 177.86167,13.5373726 177.44792,13.9450906 C177.032378,14.3531692 176.702811,14.8180507 176.459217,15.3393743 C176.213833,15.8614192 176.072334,16.4065458 176.03472,16.9754756 L185.051254,16.9754756 Z M187,17.6015688 C187,17.7344694 187,17.8767469 187,18.0284014 C187,18.1805969 186.991044,18.3416283 186.973133,18.5122171 L176.006062,18.5122171 C176.023974,19.1763592 176.156517,19.8024524 176.401901,20.3903165 C176.647286,20.9785412 176.985809,21.4906681 177.419262,21.9268776 C177.852714,22.3634478 178.361394,22.7093139 178.945302,22.9655577 C179.529209,23.2216211 180.161477,23.3496529 180.838523,23.3496529 C181.837972,23.3496529 182.699504,23.1175728 183.42491,22.652511 C184.150317,22.1879903 184.701984,21.6520602 185.078121,21.0447209 L186.519978,22.1829411 C185.7283,23.1886214 184.857812,23.9095663 183.906724,24.3455955 C182.953844,24.7816247 181.93111,25 180.838523,25 C179.858777,25 178.950675,24.8245424 178.112428,24.4736273 C177.272389,24.1228924 176.552356,23.6342079 175.948746,23.0081147 C175.346928,22.3822018 174.870488,21.6423226 174.523009,20.7886575 C174.173739,19.9349923 174,19.0057704 174,18.0000902 C174,16.9947705 174.168366,16.065188 174.50868,15.2113425 C174.847203,14.3576774 175.318269,13.6177982 175.921879,12.9918853 C176.523698,12.3657921 177.231193,11.8776485 178.040783,11.5265531 C178.850372,11.1754576 179.728024,11 180.670157,11 C181.705428,11 182.620694,11.1754576 183.410581,11.5265531 C184.20226,11.8776485 184.861394,12.3517266 185.389777,12.949148 C185.916368,13.5467496 186.317581,14.2438914 186.591623,15.0407538 C186.863874,15.8374358 187,16.6911009 187,17.6015688 Z" id="Fill-14" fill="#425B76"></path>
                        <path d="M193.727273,11.6906422 C194.506239,11.2301568 195.374332,11 196.329768,11 C196.686275,11 197.057041,11.0363857 197.440285,11.108299 C197.825312,11.1805556 198.199643,11.3207779 198.566845,11.5281078 C198.932264,11.7359527 199.269162,12.0112484 199.579323,12.3541667 C199.887701,12.6972565 200.15508,13.139549 200.379679,13.6812157 C200.83066,12.8144804 201.44385,12.1511275 202.222816,11.6906422 C203,11.2301568 203.925134,11 204.99287,11 C206.661319,11 207.914439,11.4786782 208.748663,12.435348 C209.582888,13.3925327 210,14.6560784 210,16.2270147 L210,24 L208.087344,24 L208.087344,16.985451 C208.087344,15.6494772 207.828877,14.5750687 207.313725,13.762397 C206.798574,12.949897 205.921569,12.5438187 204.684492,12.5438187 C203.989305,12.5438187 203.404635,12.6792353 202.925134,12.949897 C202.447415,13.2207304 202.062389,13.5775507 201.771836,14.0196715 C201.481283,14.4623072 201.270945,14.9632974 201.139037,15.5228137 C201.008913,16.0828448 200.942959,16.6603823 200.942959,17.2562843 L200.942959,24 L199.030303,24 L199.030303,16.6063187 C199.030303,15.9927387 198.983957,15.4327075 198.889483,14.9270833 C198.795009,14.4218024 198.631016,13.9927255 198.397504,13.6405392 C198.16221,13.2885245 197.839572,13.0176912 197.426025,12.8280392 C197.01426,12.6385588 196.488414,12.5438187 195.85205,12.5438187 C195.40107,12.5438187 194.946524,12.6431929 194.486631,12.841598 C194.02852,13.0405181 193.614973,13.3425882 193.249554,13.7488382 C192.884135,14.1550882 192.588235,14.6696372 192.363636,15.2926568 C192.139037,15.9155049 192.026738,16.6514575 192.026738,17.5 L192.026738,24 L190.114082,24 L190.114082,14.1145833 C190.114082,13.7718367 190.103387,13.329201 190.085561,12.7875343 C190.065954,12.245696 190.037433,11.7584363 190,11.324897 L191.828877,11.324897 C191.86631,11.6681585 191.894831,12.0472909 191.914439,12.4624657 C191.932264,12.8779837 191.941176,13.2207304 191.941176,13.4915637 L191.998217,13.4915637 C192.372549,12.7514919 192.950089,12.1511275 193.727273,11.6906422" id="Fill-15" fill="#425B76"></path>
                        <path d="M217.698722,22.6002256 L217.756531,22.6002256 L221.889939,12 L224,12 L217.357282,27.8065483 C216.958032,28.7725088 216.450389,29.5461275 215.832546,30.1277445 C215.214703,30.7090214 214.325875,31 213.166064,31 C212.577126,31 211.997221,30.9462599 211.428155,30.8389499 L211.626876,29.175049 C212.083936,29.3180724 212.559061,29.3898392 213.052251,29.3898392 C213.717065,29.3898392 214.240967,29.1973273 214.620345,28.8129839 C215.001529,28.4279602 215.333936,27.8776349 215.619372,27.1623479 L216.701501,24.5324866 L211,12 L213.166064,12 L217.698722,22.6002256" id="Fill-16" fill="#425B76"></path>
                    </g>
                </g>
            </g>
        </g>
    </g>
</svg>